<?xml version="1.0" encoding="utf-8"?>
<!-- Generator: Adobe Illustrator 17.0.0, SVG Export Plug-In . SVG Version: 6.00 Build 0)  -->
<!DOCTYPE svg PUBLIC "-//W3C//DTD SVG 1.1//EN" "http://www.w3.org/Graphics/SVG/1.1/DTD/svg11.dtd">
<svg version="1.1" id="图层_1" xmlns="http://www.w3.org/2000/svg" xmlns:xlink="http://www.w3.org/1999/xlink" x="0px" y="0px"
	 width="1200px" height="1680px" viewBox="0 0 1200 1680" enable-background="new 0 0 1200 1680" xml:space="preserve">
<path fill="none" stroke="#000000" stroke-miterlimit="10" d="M758,514.622c0,0-64.155,38.177-119,83.963
	c-41.195,34.39-73.057,85.829-69,142.327c5,69.628,100,125.944,191.873,154.614C873.412,930.334,950,1017.375,954,1079.835
	s-27,98.298-68,130.04S811,1258,811,1258"/>
<path fill="none" stroke="#000000" stroke-miterlimit="10" d="M75.186,11.686c0,0,86-26.889,183,12.02s111,92.154,182,109.561
	s161-35.838,248,15.359s140.815,105.98,147,191.476c2,27.646-1,53.245-11,78.843c-10,25.598-29,56.316-29,56.316"/>
</svg>
